<?xml version="1.0" standalone="no"?>
<!DOCTYPE svg PUBLIC "-//W3C//DTD SVG 20010904//EN"
 "http://www.w3.org/TR/2001/REC-SVG-20010904/DTD/svg10.dtd">
<svg version="1.0" xmlns="http://www.w3.org/2000/svg"
 width="225.000000pt" height="225.000000pt" viewBox="0 0 225.000000 225.000000"
 preserveAspectRatio="xMidYMid meet">

<g transform="translate(0.000000,225.000000) scale(0.100000,-0.100000)"
fill="#000000" stroke="none">
<path d="M1093 2230 c-30 -12 -39 -53 -24 -114 21 -90 23 -116 11 -145 -10
-24 -19 -30 -58 -36 -135 -19 -279 -77 -381 -154 l-53 -40 -39 20 c-28 14 -46
34 -65 70 -47 94 -99 122 -142 76 -43 -46 -17 -94 77 -141 36 -19 56 -37 70
-65 l20 -39 -40 -53 c-76 -102 -135 -247 -154 -380 -5 -36 -12 -49 -31 -58
-33 -15 -71 -14 -119 4 -51 18 -106 19 -130 1 -26 -19 -26 -83 0 -102 25 -18
87 -18 132 1 42 18 83 19 117 4 19 -9 26 -22 31 -58 19 -133 78 -278 154 -380
l40 -53 -20 -39 c-14 -28 -34 -46 -70 -65 -94 -47 -122 -99 -76 -142 46 -43
94 -17 141 77 19 36 37 56 65 70 l39 20 53 -40 c102 -76 247 -135 380 -154 36
-5 49 -12 58 -31 15 -33 14 -71 -4 -119 -18 -51 -19 -106 -1 -130 19 -26 83
-26 102 0 18 25 18 87 -1 132 -18 42 -19 83 -4 117 9 19 22 26 58 31 133 19
278 78 380 154 l53 40 39 -20 c28 -14 46 -34 65 -70 47 -94 99 -122 142 -76
43 46 17 94 -77 141 -36 19 -56 37 -70 65 l-20 39 40 53 c76 102 135 247 154
380 5 36 12 49 31 58 34 15 75 14 117 -4 45 -19 107 -19 132 -1 26 19 26 83 0
102 -24 18 -79 17 -130 -1 -48 -18 -86 -19 -119 -4 -19 9 -26 22 -31 58 -19
133 -78 278 -154 380 l-40 53 20 39 c14 28 34 46 70 65 94 47 122 99 76 142
-46 43 -94 17 -141 -77 -19 -36 -37 -56 -65 -70 l-39 -20 -53 40 c-102 76
-247 135 -380 154 -36 5 -49 12 -58 31 -15 34 -14 75 4 117 18 44 19 107 3
130 -16 20 -57 29 -85 17z m11 -56 c3 -8 3 -27 0 -41 -8 -31 -24 -12 -24 30 0
29 14 36 24 11z m119 -280 c11 -4 2 -17 -32 -49 -44 -41 -51 -44 -131 -55
-170 -23 -291 -81 -405 -195 -109 -109 -170 -231 -195 -388 -6 -39 -18 -77
-29 -88 -17 -19 -18 -19 -17 3 1 13 -6 24 -15 26 -22 4 -32 -24 -15 -41 11
-11 9 -18 -10 -41 l-24 -27 0 99 c0 118 23 220 73 318 31 60 81 136 62 94 -4
-8 18 10 48 40 44 45 57 53 64 41 5 -9 16 -12 26 -8 23 9 22 28 -2 34 -16 4
-8 14 43 60 77 70 85 78 69 69 -7 -4 -13 -5 -13 -2 0 15 149 79 235 101 50 13
241 20 268 9z m627 -14 c-11 -21 -50 -46 -50 -33 0 17 32 53 46 53 12 0 12 -4
4 -20z m-1450 -60 c13 -24 2 -26 -28 -4 -29 20 -31 49 -2 34 11 -6 24 -19 30
-30z m663 -79 c-3 -11 3 -44 13 -73 24 -69 24 -203 1 -278 -19 -66 -14 -100
17 -100 14 -1 7 -6 -18 -15 -50 -18 -83 -51 -101 -101 -9 -25 -14 -32 -15 -18
0 31 -34 36 -100 17 -75 -23 -209 -23 -278 1 -29 10 -63 16 -74 13 -19 -5 -20
-3 -14 39 10 75 53 184 98 251 25 37 44 57 46 49 2 -8 32 -31 68 -51 78 -44
148 -112 194 -190 50 -83 59 -86 105 -40 46 46 43 55 -40 105 -78 46 -146 116
-190 195 -20 36 -41 65 -46 65 -21 0 -5 17 49 52 64 41 90 53 177 79 84 25
115 25 108 0z m278 -15 c80 -28 213 -109 186 -114 -9 -2 -32 -32 -52 -68 -44
-78 -115 -151 -190 -194 -31 -18 -61 -41 -68 -51 -20 -32 -37 -23 -35 19 0 20
-7 71 -16 112 -20 84 -16 166 10 244 9 26 14 56 11 68 -5 19 -3 20 39 14 25
-3 77 -17 115 -30z m-244 -8 c-3 -8 -6 -5 -6 6 -1 11 2 17 5 13 3 -3 4 -12 1
-19z m443 -142 c0 -3 -4 -8 -10 -11 -5 -3 -10 -1 -10 4 0 6 5 11 10 11 6 0 10
-2 10 -4z m-855 -46 c3 -5 1 -10 -4 -10 -6 0 -11 5 -11 10 0 6 2 10 4 10 3 0
8 -4 11 -10z m978 -60 c42 -65 84 -173 93 -244 6 -42 5 -44 -14 -39 -12 3 -42
-2 -68 -11 -77 -26 -160 -30 -244 -11 -41 10 -89 18 -107 19 -42 1 -51 13 -26
31 12 8 36 40 53 71 43 74 116 145 195 189 36 20 65 41 65 46 0 22 18 5 53
-51z m-1535 -309 c10 -6 7 -10 -11 -15 -28 -7 -57 1 -57 15 0 11 51 11 68 0z
m1023 -1 c23 -13 25 -52 4 -70 -8 -7 -25 -10 -39 -6 -33 8 -43 42 -20 67 20
22 28 23 55 9z m1039 1 c0 -14 -29 -22 -57 -15 -18 5 -21 9 -11 15 17 11 68
11 68 0z m-1653 -7 c-3 -3 -12 -4 -19 -1 -8 3 -5 6 6 6 11 1 17 -2 13 -5z
m1200 0 c-3 -3 -12 -4 -19 -1 -8 3 -5 6 6 6 11 1 17 -2 13 -5z m-912 -71 c39
-9 87 -15 108 -15 41 2 50 -15 18 -35 -10 -7 -33 -37 -51 -68 -43 -75 -116
-146 -194 -190 -36 -20 -66 -43 -68 -52 -5 -27 -86 106 -114 186 -13 38 -27
90 -30 115 -6 42 -5 44 14 39 11 -3 42 2 69 10 93 30 152 33 248 10z m848 -9
c26 -9 57 -14 69 -11 19 5 20 3 14 -43 -12 -88 -64 -210 -121 -284 -13 -18
-16 -18 -27 -4 -7 8 -39 30 -71 48 -73 40 -145 112 -187 184 -17 31 -41 63
-53 71 -25 18 -16 30 26 31 18 1 61 9 97 18 76 19 181 15 253 -10z m-607 -145
c1 -19 9 -68 19 -109 19 -84 15 -167 -11 -244 -9 -26 -14 -56 -11 -68 5 -19 3
-20 -39 -14 -71 9 -179 51 -244 93 -56 35 -73 53 -51 53 5 0 26 29 46 65 44
79 115 152 190 195 31 18 61 41 68 51 17 27 32 18 33 -22z m151 22 c7 -10 37
-33 68 -51 75 -43 146 -116 190 -195 22 -39 43 -65 53 -65 13 0 11 -5 -8 -20
-76 -61 -199 -114 -290 -126 -46 -6 -48 -5 -43 14 3 12 -3 45 -13 74 -24 69
-24 203 0 280 9 32 14 63 11 68 -8 13 1 40 12 40 5 0 14 -9 20 -19z m-527
-225 c0 -3 -4 -8 -10 -11 -5 -3 -10 -1 -10 4 0 6 5 11 10 11 6 0 10 -2 10 -4z
m845 -46 c3 -5 1 -10 -4 -10 -6 0 -11 5 -11 10 0 6 2 10 4 10 3 0 8 -4 11 -10z
m-438 -162 c-3 -8 -6 -5 -6 6 -1 11 2 17 5 13 3 -3 4 -12 1 -19z m-693 -80
c-13 -23 -37 -48 -46 -48 -16 0 -7 29 14 44 27 19 42 21 32 4z m1446 -68 c8
-16 8 -20 -4 -20 -14 0 -46 36 -46 53 0 13 39 -12 50 -33z m-745 -291 c-4 -11
-11 -19 -16 -19 -10 0 -12 40 -2 66 6 15 7 14 15 -6 5 -13 6 -31 3 -41z"/>
<path d="M1107 1863 c-3 -5 -2 -15 3 -22 10 -17 43 -6 38 12 -6 15 -34 22 -41
10z"/>
</g>
</svg>
